<?xml version="1.0" encoding="utf-8"?>
<svg version="1.1" id="Layer_1"
	 xmlns="http://www.w3.org/2000/svg"
	 x="0px" y="0px" width="108px" height="108px" viewBox="0 0 108 108" enable-background="new 0 0 108 108" xml:space="preserve">
	<defs>
    <style>

    </style>
  </defs>
<switch>	
	<g >
		<g >
			<path id="Rectangle_Copy_4" class="ob"  d="M68.122,0.032l40,0.09l0,0l-0.09,39.869
				c-0.013,5.505-4.499,9.957-10.022,9.945l-40-0.09l0,0L58.1,9.977C58.112,4.472,62.599,0.02,68.122,0.032z"/>
			<path id="Rectangle_Copy_4-2" class="ob"    d="M50.1,9.958l-0.09,39.869l0,0L10.01,49.736
				c-5.523-0.012-9.991-4.484-9.978-9.99l0.09-39.869l0,0l40,0.09C45.646-0.019,50.112,4.454,50.1,9.958z"/>
			<path id="Rectangle_Copy_4-3" class="ob"   d="M107.968,68.253l-0.09,39.869l0,0l-40-0.091
				c-5.523-0.013-9.99-4.485-9.978-9.989l0.09-39.869l0,0l40,0.091C103.514,58.276,107.98,62.748,107.968,68.253z"/>
			<path id="Rectangle_Copy_4-4"  class="ob"  d="M9.991,58.064l40,0.091l0,0L49.9,98.024
				c-0.012,5.504-4.499,9.956-10.022,9.943l-40-0.09l0,0l0.09-39.869C-0.02,62.504,4.468,58.052,9.991,58.064z"/>
		</g>
	</g>
</switch>
</svg>
