<?xml version="1.0" encoding="utf-8"?>
<!-- Generator: Adobe Illustrator 16.0.1, SVG Export Plug-In . SVG Version: 6.00 Build 0)  -->

<svg version="1.1" id="Layer_1" xmlns="http://www.w3.org/2000/svg" xmlns:xlink="http://www.w3.org/1999/xlink" x="0px" y="0px"
	 width="108px" height="108.355px" viewBox="0 0 108 108.355" enable-background="new 0 0 108 108.355" xml:space="preserve">
	<defs>
	<style>
		.logo-icon {
		fill: #2E4B9C;
		}
	</style>
</defs>
<g id="Group_1" transform="translate(-11.355 -10.645)">
	<path id="Rectangle_Copy_4" fill="#2196F3" class="logo-icon" d="M79.355,10.645h40l0,0v40c0,5.523-4.477,10-10,10h-40l0,0v-40
		C69.355,15.122,73.832,10.645,79.355,10.645z"/>
	<path id="Rectangle_Copy_4-2"  class="logo-icon" d="M61.355,20.645v40l0,0h-40c-5.523,0-10-4.477-10-10v-40l0,0h40
		C56.878,10.645,61.355,15.122,61.355,20.645z"/>
	<path id="Rectangle_Copy_4-3" class="logo-icon" d="M119.355,79v40l0,0h-40c-5.523,0-10-4.478-10-10V69l0,0h40C114.878,69,119.355,73.477,119.355,79z
		"/>
	<path id="Rectangle_Copy_4-4" fill="#2196F3" class="logo-icon" d="M21.355,69h40l0,0v40c0,5.522-4.477,10-10,10h-40l0,0V79C11.355,73.477,15.832,69,21.355,69z"/>
</g>
</svg>
